<svg width="206" height="64" viewBox="0 0 206 64" fill="none" xmlns="http://www.w3.org/2000/svg">
<path d="M31.8819 41.9174C30.281 41.9174 28.987 43.863 28.987 46.2621C28.987 48.6612 30.281 50.6069 31.8819 50.6069C33.4829 50.6069 34.7769 48.6612 34.7769 46.2621C34.7769 43.863 33.4829 41.9174 31.8819 41.9174ZM35.2822 0H12.7745C5.72846 0 0 5.73317 0 12.7745V48.6186C0 50.5549 0.958677 52.3542 2.55962 53.4357C4.16057 54.5171 6.19127 54.7296 7.97167 54.0118L12.3306 52.2881V58.1818C12.3306 60.0661 13.2043 61.7804 14.7296 62.8855C15.7403 63.6222 16.9209 64 18.1204 64C18.7249 64 19.3388 63.9008 19.9386 63.7072L44.1889 55.8017C46.503 55.0508 48.0519 52.9067 48.0519 50.4746V12.7745C48.0567 5.73317 42.3282 0 35.2822 0ZM44.5242 50.4746C44.5242 51.3672 43.9481 52.1606 43.098 52.4392L18.843 60.3447C18.144 60.5762 17.3979 60.4581 16.8028 60.0236C16.2078 59.5891 15.863 58.9185 15.863 58.1818L15.8253 16.1369C15.9433 13.1854 12.2834 13.3932 12.3259 16.0708V48.4911L6.65407 50.7344C5.94097 51.0177 5.16647 50.9421 4.52892 50.5124C3.89138 50.0826 3.52775 49.3932 3.52775 48.6281V12.7839C3.52775 7.67887 7.6647 3.54191 12.7698 3.54191H35.2775C40.3825 3.54191 44.5195 7.67887 44.5195 12.7839V50.4746H44.5242Z" fill="#00ACCA"/>
<path d="M64.9681 14.5408H67.9528V30.3944H66.0968V30.418L57.7757 19.7214V30.3944H54.791V14.5644H57.209L64.9634 24.3778V14.5408H64.9681Z" fill="#706F6F"/>
<path d="M81.9268 27.4098H73.6482L72.2928 30.3944H69.0579L76.1606 14.5645H79.4191L86.5219 30.3944H83.2633L81.9268 27.4098ZM77.7899 17.8891L74.8477 24.6282H80.7273L77.7899 17.8891Z" fill="#706F6F"/>
<path d="M97.3979 18.3848C96.8548 17.4781 95.3625 16.6186 93.6435 16.6186C91.4286 16.6186 90.366 17.5442 90.366 18.7201C90.366 20.0991 91.9953 20.4864 93.8938 20.7083C97.1948 21.1145 100.269 21.974 100.269 25.752C100.269 29.2798 97.1476 30.7957 93.6199 30.7957C90.3849 30.7957 87.8961 29.7992 86.7202 26.9043L89.209 25.6151C89.9079 27.3577 91.7403 28.1275 93.6624 28.1275C95.5372 28.1275 97.3035 27.471 97.3035 25.752C97.3035 24.2597 95.745 23.6505 93.6388 23.4238C90.4038 23.0413 87.4192 22.1818 87.4192 18.6304C87.4192 15.3718 90.6305 14.0401 93.549 14.0165C96.0142 14.0165 98.5691 14.7154 99.7686 17.1617L97.3979 18.3848Z" fill="#706F6F"/>
<path d="M112.345 18.3848C111.802 17.4781 110.309 16.6186 108.59 16.6186C106.375 16.6186 105.313 17.5442 105.313 18.7201C105.313 20.0991 106.942 20.4864 108.841 20.7083C112.142 21.1145 115.216 21.974 115.216 25.752C115.216 29.2798 112.094 30.7957 108.567 30.7957C105.332 30.7957 102.843 29.7992 101.667 26.9043L104.156 25.6151C104.855 27.3577 106.687 28.1275 108.609 28.1275C110.484 28.1275 112.25 27.471 112.25 25.752C112.25 24.2597 110.692 23.6505 108.586 23.4238C105.351 23.0413 102.366 22.1818 102.366 18.6304C102.366 15.3718 105.577 14.0401 108.496 14.0165C110.961 14.0165 113.516 14.7154 114.715 17.1617L112.345 18.3848Z" fill="#706F6F"/>
<path d="M127.632 14.5645H128.312L133.152 29.0391L138.059 14.5645H139.372L133.785 30.4417H132.472L129.96 23.0225L127.972 16.7604L125.983 22.98L123.452 30.4417H122.139L116.6 14.5645H117.889L122.772 29.0391L127.632 14.5645Z" fill="#706F6F"/>
<path d="M151.287 30.3944L149.544 26.5031H140.09L138.371 30.3944H137.058L144.161 14.5645H145.497L152.6 30.3944H151.287ZM149.072 25.3744L144.822 15.7404L140.571 25.3744H149.072Z" fill="#706F6F"/>
<path d="M156.085 14.5645V29.2421H164.996V30.3944H154.867V14.5645H156.085Z" fill="#706F6F"/>
<path d="M168.52 14.5645V29.2421H177.431V30.3944H167.301V14.5645H168.52Z" fill="#706F6F"/>
<path d="M180.935 21.8702H190.205V22.98H180.935V29.2232H190.933V30.3991H179.74V14.5691H190.664V15.7214H180.94V21.8702H180.935Z" fill="#706F6F"/>
<path d="M199.051 15.6694H193.327V14.5833H205.993V15.6694H200.274V30.3896H199.051V15.6694Z" fill="#706F6F"/>
<path d="M78.3518 42.8099C78.3518 43.5371 78.2432 44.1888 78.026 44.765C77.8087 45.3459 77.5018 45.837 77.1098 46.2431C76.7178 46.6493 76.2456 46.961 75.693 47.1782C75.1405 47.3954 74.536 47.5041 73.8701 47.5041H70.4416V38.1204H73.8701C74.5313 38.1204 75.1405 38.229 75.693 38.4462C76.2456 38.6635 76.7178 38.9751 77.1098 39.3813C77.5018 39.7874 77.8087 40.2833 78.026 40.8594C78.2432 41.4403 78.3518 42.092 78.3518 42.8099ZM77.6482 42.8099C77.6482 42.1534 77.5585 41.5725 77.3743 41.0578C77.1901 40.543 76.9351 40.1133 76.6045 39.7591C76.2739 39.4049 75.8725 39.1357 75.4097 38.9515C74.9469 38.7673 74.4321 38.6729 73.8701 38.6729H71.1216V46.9562H73.8701C74.4321 46.9562 74.9469 46.8618 75.4097 46.6776C75.8725 46.4934 76.2739 46.2243 76.6045 45.8701C76.9351 45.5159 77.1948 45.0814 77.3743 44.5714C77.5537 44.0566 77.6482 43.471 77.6482 42.8099Z" fill="#706F6F"/>
<path d="M83.7119 38.6305C83.7119 38.7108 83.6978 38.7863 83.66 38.8524C83.6269 38.9233 83.5844 38.98 83.5325 39.0366C83.4805 39.0886 83.4191 39.1311 83.3483 39.1641C83.2775 39.1972 83.2019 39.2114 83.1216 39.2114C83.0413 39.2114 82.9658 39.1972 82.8949 39.1641C82.8241 39.1311 82.7627 39.0933 82.7107 39.0366C82.6588 38.9847 82.6163 38.9233 82.5832 38.8524C82.5502 38.7863 82.536 38.7108 82.536 38.6305C82.536 38.5502 82.5502 38.4746 82.5832 38.4038C82.6163 38.333 82.6541 38.2668 82.7107 38.2149C82.7627 38.1629 82.8241 38.1204 82.8949 38.0874C82.9658 38.0591 83.0413 38.0402 83.1216 38.0402C83.2019 38.0402 83.2775 38.0543 83.3483 38.0874C83.4191 38.1204 83.4805 38.1582 83.5325 38.2149C83.5844 38.2668 83.6269 38.333 83.66 38.4038C83.693 38.4746 83.7119 38.5549 83.7119 38.6305ZM83.438 40.9068V47.5089H82.8099V40.9068H83.438Z" fill="#706F6F"/>
<path d="M90.4982 40.7935C90.791 40.7935 91.0555 40.8265 91.3011 40.8974C91.5466 40.9682 91.7639 41.0674 91.9622 41.1949H93.6529V41.4121C93.6529 41.5113 93.5915 41.568 93.4687 41.5916L92.4581 41.6624C92.5809 41.8324 92.6753 42.0213 92.7414 42.2291C92.8076 42.4369 92.8406 42.6636 92.8406 42.9044C92.8406 43.2208 92.7839 43.5136 92.6706 43.7687C92.5573 44.0284 92.3967 44.2504 92.1936 44.4298C91.9858 44.614 91.7403 44.7557 91.4522 44.8596C91.1641 44.9635 90.843 45.0107 90.4935 45.0107C90.111 45.0107 89.771 44.954 89.464 44.8407C89.2798 44.9493 89.1334 45.0768 89.0248 45.2232C88.9162 45.3649 88.8642 45.5066 88.8642 45.6435C88.8642 45.8324 88.9303 45.9788 89.0673 46.0827C89.2043 46.1866 89.379 46.2574 89.5962 46.3047C89.8135 46.3519 90.0638 46.3802 90.3471 46.3944C90.6258 46.4086 90.9138 46.4227 91.2066 46.4369C91.4994 46.4511 91.7828 46.4794 92.0661 46.5219C92.3448 46.5597 92.595 46.6305 92.817 46.7297C93.0342 46.8289 93.2137 46.9705 93.3459 47.1453C93.4829 47.3247 93.549 47.5609 93.549 47.8584C93.549 48.1323 93.4782 48.3968 93.3412 48.6471C93.2043 48.8974 93.0059 49.124 92.7462 49.3177C92.4864 49.5113 92.1747 49.6671 91.8064 49.7852C91.438 49.9032 91.0272 49.9599 90.5738 49.9599C90.111 49.9599 89.7001 49.9127 89.3554 49.8182C89.0059 49.7238 88.7131 49.5963 88.477 49.4357C88.2409 49.2752 88.0614 49.0862 87.9433 48.8737C87.8253 48.6612 87.7639 48.4345 87.7639 48.1984C87.7639 47.8489 87.8772 47.5514 88.1086 47.3011C88.34 47.0508 88.6517 46.8572 89.0484 46.7155C88.8217 46.64 88.6423 46.5313 88.51 46.3897C88.3778 46.248 88.3117 46.0496 88.3117 45.7993C88.3117 45.7049 88.3306 45.6104 88.3636 45.5066C88.3967 45.4027 88.4534 45.3035 88.5242 45.2043C88.595 45.1051 88.68 45.0107 88.7839 44.921C88.8878 44.8312 89.0012 44.7509 89.1287 44.6801C88.8123 44.5006 88.5714 44.2598 88.3967 43.9576C88.222 43.6553 88.137 43.3059 88.137 42.9044C88.137 42.588 88.1936 42.2952 88.307 42.0402C88.4203 41.7805 88.5809 41.5585 88.7887 41.3743C88.9965 41.1901 89.2468 41.0437 89.5348 40.9446C89.8229 40.8454 90.144 40.7935 90.4982 40.7935ZM92.9634 47.9528C92.9634 47.7451 92.9115 47.5798 92.8028 47.4522C92.6942 47.3247 92.5478 47.2256 92.3684 47.1547C92.1889 47.0839 91.9764 47.0367 91.7403 47.0083C91.5041 46.98 91.2538 46.9611 90.9988 46.9469C90.7438 46.9328 90.4841 46.9186 90.2243 46.9044C89.9646 46.8903 89.719 46.8667 89.4876 46.8241C89.3176 46.8903 89.1665 46.9658 89.0248 47.0555C88.8831 47.1453 88.7603 47.2445 88.6612 47.3531C88.5573 47.4617 88.4817 47.5798 88.4203 47.712C88.3636 47.8442 88.3353 47.9812 88.3353 48.1323C88.3353 48.3259 88.3873 48.5054 88.4864 48.6707C88.5856 48.836 88.732 48.9824 88.9256 49.1004C89.1193 49.2232 89.3554 49.3177 89.634 49.3885C89.9126 49.4593 90.2338 49.4971 90.5974 49.4971C90.9327 49.4971 91.2444 49.4593 91.5372 49.3838C91.8253 49.3082 92.0803 49.2043 92.2928 49.0674C92.5053 48.9304 92.6753 48.7651 92.7981 48.5762C92.902 48.3873 92.9634 48.1795 92.9634 47.9528ZM90.4982 44.5904C90.7816 44.5904 91.0319 44.5479 91.2538 44.4676C91.4758 44.3873 91.66 44.274 91.8111 44.1276C91.9622 43.9812 92.0756 43.8064 92.1559 43.6034C92.2361 43.4003 92.2739 43.1736 92.2739 42.928C92.2739 42.6825 92.2314 42.4558 92.1511 42.248C92.0708 42.0402 91.9528 41.8655 91.8017 41.7191C91.6505 41.5727 91.4616 41.4593 91.2444 41.379C91.0272 41.2988 90.7769 41.261 90.4982 41.261C90.2196 41.261 89.9693 41.2988 89.7521 41.379C89.5348 41.4593 89.3459 41.5727 89.1948 41.7191C89.0437 41.8655 88.9256 42.0402 88.8453 42.248C88.7651 42.4558 88.7273 42.6825 88.7273 42.928C88.7273 43.1783 88.7651 43.4003 88.8453 43.6034C88.9256 43.8064 89.039 43.9812 89.1948 44.1276C89.3459 44.274 89.5348 44.3873 89.7521 44.4676C89.9693 44.5479 90.2196 44.5904 90.4982 44.5904Z" fill="#706F6F"/>
<path d="M98.7438 38.6305C98.7438 38.7108 98.7296 38.7863 98.6918 38.8524C98.6588 38.9233 98.6163 38.98 98.5643 39.0366C98.5124 39.0886 98.451 39.1311 98.3802 39.1641C98.3093 39.1972 98.2338 39.2114 98.1535 39.2114C98.0732 39.2114 97.9976 39.1972 97.9268 39.1641C97.856 39.1311 97.7946 39.0933 97.7426 39.0366C97.6907 38.9847 97.6482 38.9233 97.6151 38.8524C97.582 38.7863 97.5679 38.7108 97.5679 38.6305C97.5679 38.5502 97.582 38.4746 97.6151 38.4038C97.6482 38.333 97.6859 38.2668 97.7426 38.2149C97.7946 38.1629 97.856 38.1204 97.9268 38.0874C97.9976 38.0591 98.0732 38.0402 98.1535 38.0402C98.2338 38.0402 98.3093 38.0543 98.3802 38.0874C98.451 38.1204 98.5124 38.1582 98.5643 38.2149C98.6163 38.2668 98.6588 38.333 98.6918 38.4038C98.7249 38.4746 98.7438 38.5549 98.7438 38.6305ZM98.4699 40.9068V47.5089H97.8418V40.9068H98.4699Z" fill="#706F6F"/>
<path d="M105.176 47.6127C104.727 47.6127 104.383 47.4899 104.132 47.2396C103.882 46.994 103.759 46.6115 103.759 46.092V41.582H102.81C102.763 41.582 102.72 41.5678 102.692 41.5442C102.659 41.5159 102.645 41.4781 102.645 41.4309V41.1853L103.773 41.105L103.934 38.7437C103.943 38.706 103.962 38.6682 103.986 38.6351C104.014 38.6021 104.052 38.5879 104.099 38.5879H104.397V41.1097H106.479V41.582H104.397V46.059C104.397 46.2384 104.42 46.3943 104.468 46.5265C104.515 46.6587 104.576 46.7626 104.661 46.8476C104.741 46.9326 104.841 46.994 104.949 47.0318C105.058 47.0696 105.181 47.0932 105.308 47.0932C105.469 47.0932 105.606 47.0696 105.719 47.0224C105.832 46.9751 105.932 46.9232 106.017 46.8712C106.102 46.8146 106.168 46.7626 106.224 46.7201C106.276 46.6729 106.319 46.6493 106.352 46.6493C106.385 46.6493 106.423 46.6729 106.456 46.7154L106.63 46.994C106.46 47.1782 106.248 47.3293 105.988 47.4427C105.724 47.5607 105.455 47.6127 105.176 47.6127Z" fill="#706F6F"/>
<path d="M114.63 47.5089C114.498 47.5089 114.418 47.4475 114.385 47.3247L114.29 46.4841C114.111 46.6588 113.927 46.8194 113.752 46.961C113.573 47.1027 113.384 47.2208 113.19 47.3199C112.996 47.4191 112.784 47.4899 112.562 47.5419C112.335 47.5938 112.09 47.6175 111.821 47.6175C111.594 47.6175 111.377 47.5844 111.164 47.5183C110.952 47.4522 110.763 47.3483 110.597 47.2113C110.432 47.0744 110.3 46.8996 110.201 46.6824C110.102 46.4699 110.05 46.2101 110.05 45.9079C110.05 45.6293 110.13 45.3695 110.29 45.1334C110.451 44.8926 110.701 44.6848 111.041 44.51C111.381 44.3353 111.821 44.1936 112.349 44.085C112.883 43.9764 113.521 43.915 114.272 43.9008V43.2113C114.272 42.6021 114.139 42.1299 113.875 41.804C113.61 41.4734 113.223 41.3081 112.704 41.3081C112.387 41.3081 112.113 41.3506 111.891 41.4404C111.669 41.5301 111.481 41.6245 111.325 41.7332C111.169 41.8418 111.046 41.9362 110.947 42.026C110.848 42.1157 110.767 42.1582 110.701 42.1582C110.654 42.1582 110.612 42.1487 110.583 42.1251C110.55 42.1015 110.527 42.0732 110.503 42.0401L110.39 41.8465C110.734 41.5018 111.098 41.242 111.476 41.0626C111.858 40.8878 112.288 40.7981 112.77 40.7981C113.124 40.7981 113.431 40.8548 113.7 40.9681C113.965 41.0815 114.187 41.242 114.361 41.4545C114.536 41.6623 114.668 41.9173 114.758 42.2196C114.848 42.5171 114.89 42.8524 114.89 43.2161V47.5136H114.63V47.5089ZM111.976 47.1594C112.231 47.1594 112.468 47.131 112.685 47.0744C112.897 47.0177 113.1 46.9421 113.28 46.843C113.464 46.7438 113.634 46.6257 113.795 46.4888C113.955 46.3518 114.111 46.2054 114.267 46.0449V44.3258C113.639 44.3447 113.096 44.392 112.642 44.4675C112.189 44.5431 111.811 44.6517 111.518 44.7839C111.225 44.9162 111.008 45.0767 110.867 45.2562C110.73 45.4404 110.659 45.6482 110.659 45.8843C110.659 46.1063 110.697 46.2952 110.767 46.4604C110.838 46.621 110.937 46.7532 111.06 46.8571C111.183 46.961 111.32 47.0366 111.481 47.0838C111.636 47.131 111.806 47.1594 111.976 47.1594Z" fill="#706F6F"/>
<path d="M120.34 37.8561V47.509H119.702V37.8561H120.34Z" fill="#706F6F"/>
<path d="M131.788 47.5088V38.1204H134.489C135.022 38.1204 135.49 38.1723 135.882 38.2809C136.274 38.3848 136.6 38.5407 136.86 38.7485C137.115 38.9562 137.308 39.2065 137.431 39.4993C137.554 39.7921 137.615 40.1322 137.615 40.51C137.615 40.7555 137.573 40.9964 137.488 41.2278C137.403 41.4592 137.275 41.6717 137.115 41.8653C136.949 42.059 136.751 42.229 136.515 42.3707C136.279 42.5123 136.009 42.6257 135.707 42.7012C136.444 42.8098 137.011 43.0601 137.407 43.4427C137.804 43.8252 138.002 44.3258 138.002 44.9444C138.002 45.3411 137.932 45.7 137.79 46.0212C137.648 46.3376 137.44 46.6115 137.171 46.8287C136.902 47.0507 136.571 47.2207 136.175 47.334C135.778 47.4474 135.334 47.5088 134.834 47.5088H131.788V47.5088ZM132.468 42.5123H134.498C134.933 42.5123 135.301 42.4557 135.608 42.347C135.915 42.2384 136.165 42.092 136.364 41.9078C136.562 41.7284 136.704 41.5206 136.798 41.2892C136.893 41.0578 136.935 40.8217 136.935 40.5808C136.935 39.948 136.737 39.471 136.335 39.1451C135.934 38.8193 135.315 38.6587 134.479 38.6587H132.463V42.5123H132.468ZM132.468 43.0129V46.9657H134.824C135.646 46.9657 136.269 46.7862 136.69 46.4321C137.11 46.0779 137.322 45.5773 137.322 44.9303C137.322 44.6328 137.266 44.3683 137.152 44.1322C137.039 43.896 136.878 43.693 136.666 43.5277C136.453 43.3624 136.194 43.2349 135.882 43.1451C135.57 43.0554 135.221 43.0129 134.829 43.0129H132.468V43.0129Z" fill="#706F6F"/>
<path d="M146.475 47.5089C146.342 47.5089 146.262 47.4475 146.229 47.3247L146.135 46.4841C145.955 46.6588 145.771 46.8194 145.596 46.961C145.417 47.1027 145.228 47.2208 145.034 47.3199C144.841 47.4191 144.628 47.4899 144.406 47.5419C144.179 47.5938 143.934 47.6175 143.665 47.6175C143.438 47.6175 143.221 47.5844 143.008 47.5183C142.796 47.4522 142.607 47.3483 142.442 47.2113C142.276 47.0744 142.144 46.8996 142.045 46.6824C141.946 46.4699 141.894 46.2101 141.894 45.9079C141.894 45.6293 141.974 45.3695 142.135 45.1334C142.295 44.8926 142.545 44.6848 142.886 44.51C143.226 44.3353 143.665 44.1936 144.194 44.085C144.727 43.9764 145.365 43.915 146.116 43.9008V43.2113C146.116 42.6021 145.983 42.1299 145.719 41.804C145.455 41.4734 145.067 41.3081 144.548 41.3081C144.231 41.3081 143.958 41.3506 143.736 41.4404C143.514 41.5301 143.325 41.6245 143.169 41.7332C143.013 41.8418 142.89 41.9362 142.791 42.026C142.692 42.1157 142.612 42.1582 142.545 42.1582C142.498 42.1582 142.456 42.1487 142.427 42.1251C142.394 42.1015 142.371 42.0732 142.347 42.0401L142.234 41.8465C142.579 41.5018 142.942 41.242 143.32 41.0626C143.702 40.8878 144.132 40.7981 144.614 40.7981C144.968 40.7981 145.275 40.8548 145.544 40.9681C145.809 41.0815 146.031 41.242 146.205 41.4545C146.38 41.6623 146.512 41.9173 146.602 42.2196C146.692 42.5171 146.734 42.8524 146.734 43.2161V47.5136H146.475V47.5089ZM143.821 47.1594C144.076 47.1594 144.312 47.131 144.529 47.0744C144.741 47.0177 144.945 46.9421 145.124 46.843C145.308 46.7438 145.478 46.6257 145.639 46.4888C145.799 46.3518 145.955 46.2054 146.111 46.0449V44.3258C145.483 44.3447 144.94 44.392 144.486 44.4675C144.033 44.5431 143.655 44.6517 143.362 44.7839C143.07 44.9162 142.852 45.0767 142.711 45.2562C142.574 45.4404 142.503 45.6482 142.503 45.8843C142.503 46.1063 142.541 46.2952 142.612 46.4604C142.682 46.621 142.782 46.7532 142.904 46.8571C143.027 46.961 143.164 47.0366 143.325 47.0838C143.481 47.131 143.646 47.1594 143.821 47.1594Z" fill="#706F6F"/>
<path d="M151.49 47.5088V40.9066H151.839C151.948 40.9066 152.014 40.9633 152.033 41.0719L152.094 42.0684C152.401 41.6858 152.751 41.3742 153.148 41.1475C153.544 40.9161 153.993 40.8027 154.489 40.8027C154.852 40.8027 155.169 40.8594 155.447 40.9775C155.721 41.0908 155.953 41.2561 156.132 41.4733C156.312 41.6906 156.449 41.9503 156.543 42.2573C156.638 42.5642 156.68 42.909 156.68 43.2915V47.5088H156.043V43.2915C156.043 42.6729 155.901 42.1864 155.617 41.837C155.334 41.4875 154.904 41.3081 154.324 41.3081C153.889 41.3081 153.488 41.4167 153.115 41.6386C152.741 41.8559 152.411 42.1628 152.118 42.5501V47.5135H151.49V47.5088Z" fill="#706F6F"/>
<path d="M162.073 37.8561V43.7404H162.38C162.442 43.7404 162.503 43.7309 162.555 43.712C162.612 43.6931 162.673 43.6507 162.739 43.5845L165.388 41.0721C165.431 41.0202 165.483 40.9777 165.535 40.9493C165.587 40.921 165.653 40.9068 165.733 40.9068H166.29L163.377 43.6743C163.296 43.7687 163.211 43.8395 163.117 43.8915C163.188 43.9293 163.249 43.967 163.301 44.0143C163.353 44.0615 163.4 44.1135 163.452 44.1749L166.512 47.5042H165.96C165.898 47.5042 165.842 47.4948 165.79 47.4759C165.738 47.457 165.691 47.4145 165.648 47.3531L162.876 44.3826C162.838 44.3449 162.805 44.3118 162.772 44.2835C162.739 44.2551 162.706 44.2362 162.668 44.2221C162.635 44.2079 162.593 44.1937 162.545 44.189C162.498 44.1843 162.442 44.1796 162.375 44.1796H162.078V47.509H161.44V37.8561H162.073V37.8561Z" fill="#706F6F"/>
<path d="M171.381 38.6305C171.381 38.7108 171.367 38.7863 171.329 38.8524C171.296 38.9233 171.254 38.98 171.202 39.0366C171.15 39.0886 171.089 39.1311 171.018 39.1641C170.947 39.1972 170.871 39.2114 170.791 39.2114C170.711 39.2114 170.635 39.1972 170.564 39.1641C170.494 39.1311 170.432 39.0933 170.38 39.0366C170.328 38.9847 170.286 38.9233 170.253 38.8524C170.22 38.7863 170.205 38.7108 170.205 38.6305C170.205 38.5502 170.22 38.4746 170.253 38.4038C170.286 38.333 170.324 38.2668 170.38 38.2149C170.432 38.1629 170.494 38.1204 170.564 38.0874C170.635 38.0591 170.711 38.0402 170.791 38.0402C170.871 38.0402 170.947 38.0543 171.018 38.0874C171.089 38.1204 171.15 38.1582 171.202 38.2149C171.254 38.2668 171.296 38.333 171.329 38.4038C171.367 38.4746 171.381 38.5549 171.381 38.6305ZM171.112 40.9068V47.5089H170.479V40.9068H171.112Z" fill="#706F6F"/>
<path d="M176.014 47.5088V40.9066H176.364C176.472 40.9066 176.538 40.9633 176.557 41.0719L176.619 42.0684C176.926 41.6858 177.275 41.3742 177.672 41.1475C178.069 40.9161 178.517 40.8027 179.013 40.8027C179.377 40.8027 179.693 40.8594 179.972 40.9775C180.246 41.0908 180.477 41.2561 180.656 41.4733C180.836 41.6906 180.973 41.9503 181.067 42.2573C181.162 42.5642 181.204 42.909 181.204 43.2915V47.5088H180.567V43.2915C180.567 42.6729 180.425 42.1864 180.142 41.837C179.858 41.4875 179.429 41.3081 178.848 41.3081C178.413 41.3081 178.012 41.4167 177.639 41.6386C177.266 41.8559 176.935 42.1628 176.642 42.5501V47.5135H176.014V47.5088Z" fill="#706F6F"/>
<path d="M188.118 40.7935C188.411 40.7935 188.675 40.8265 188.921 40.8974C189.166 40.9682 189.384 41.0674 189.582 41.1949H191.273V41.4121C191.273 41.5113 191.211 41.568 191.089 41.5916L190.078 41.6624C190.201 41.8324 190.295 42.0213 190.361 42.2291C190.427 42.4369 190.46 42.6636 190.46 42.9044C190.46 43.2208 190.404 43.5136 190.29 43.7687C190.177 44.0284 190.017 44.2504 189.813 44.4298C189.606 44.614 189.36 44.7557 189.072 44.8596C188.784 44.9635 188.463 45.0107 188.113 45.0107C187.731 45.0107 187.391 44.954 187.084 44.8407C186.9 44.9493 186.753 45.0768 186.645 45.2232C186.536 45.3649 186.484 45.5066 186.484 45.6435C186.484 45.8324 186.55 45.9788 186.687 46.0827C186.824 46.1866 186.999 46.2574 187.216 46.3047C187.433 46.3519 187.684 46.3802 187.967 46.3944C188.246 46.4086 188.534 46.4227 188.826 46.4369C189.119 46.4511 189.403 46.4794 189.686 46.5219C189.965 46.5597 190.215 46.6305 190.437 46.7297C190.654 46.8289 190.834 46.9705 190.966 47.1453C191.098 47.32 191.169 47.5609 191.169 47.8584C191.169 48.1323 191.098 48.3968 190.961 48.6471C190.824 48.8974 190.626 49.124 190.366 49.3177C190.106 49.5113 189.795 49.6671 189.426 49.7852C189.058 49.9032 188.647 49.9599 188.194 49.9599C187.731 49.9599 187.32 49.9127 186.971 49.8182C186.621 49.7238 186.328 49.5963 186.092 49.4357C185.856 49.2752 185.677 49.0862 185.558 48.8737C185.44 48.6612 185.379 48.4345 185.379 48.1984C185.379 47.8489 185.492 47.5514 185.724 47.3011C185.955 47.0508 186.267 46.8572 186.664 46.7155C186.437 46.64 186.257 46.5313 186.125 46.3897C185.993 46.248 185.927 46.0496 185.927 45.7993C185.927 45.7049 185.946 45.6104 185.979 45.5066C186.012 45.4027 186.068 45.3035 186.139 45.2043C186.21 45.1051 186.295 45.0107 186.399 44.921C186.503 44.8312 186.616 44.7509 186.744 44.6801C186.432 44.5006 186.187 44.2598 186.012 43.9576C185.837 43.6553 185.752 43.3059 185.752 42.9044C185.752 42.588 185.809 42.2952 185.922 42.0402C186.035 41.7805 186.196 41.5585 186.404 41.3743C186.612 41.1901 186.862 41.0437 187.15 40.9446C187.443 40.8454 187.764 40.7935 188.118 40.7935ZM190.588 47.9528C190.588 47.7451 190.536 47.5798 190.427 47.4522C190.319 47.3247 190.172 47.2256 189.993 47.1547C189.813 47.0839 189.601 47.0367 189.365 47.0083C189.124 46.98 188.878 46.9611 188.623 46.9469C188.368 46.9328 188.109 46.9186 187.849 46.9044C187.589 46.8903 187.344 46.8667 187.112 46.8241C186.942 46.8903 186.791 46.9658 186.649 47.0555C186.508 47.1453 186.385 47.2445 186.286 47.3531C186.182 47.4617 186.106 47.5798 186.045 47.712C185.988 47.8442 185.96 47.9812 185.96 48.1323C185.96 48.3259 186.007 48.5054 186.111 48.6707C186.21 48.836 186.357 48.9824 186.55 49.1004C186.744 49.2232 186.98 49.3177 187.259 49.3885C187.537 49.4593 187.858 49.4971 188.222 49.4971C188.557 49.4971 188.869 49.4593 189.162 49.3838C189.45 49.3082 189.705 49.2043 189.917 49.0674C190.13 48.9304 190.3 48.7651 190.423 48.5762C190.527 48.3873 190.588 48.1795 190.588 47.9528ZM188.118 44.5904C188.401 44.5904 188.652 44.5479 188.874 44.4676C189.096 44.3873 189.28 44.274 189.431 44.1276C189.582 43.9812 189.695 43.8064 189.776 43.6034C189.856 43.4003 189.894 43.1736 189.894 42.928C189.894 42.6825 189.851 42.4558 189.771 42.248C189.691 42.0402 189.573 41.8655 189.422 41.7191C189.27 41.5727 189.081 41.4593 188.864 41.379C188.647 41.2988 188.397 41.261 188.118 41.261C187.839 41.261 187.589 41.2988 187.372 41.379C187.155 41.4593 186.966 41.5727 186.815 41.7191C186.664 41.8655 186.545 42.0402 186.465 42.248C186.385 42.4558 186.347 42.6825 186.347 42.928C186.347 43.1783 186.385 43.4003 186.465 43.6034C186.545 43.8064 186.659 43.9812 186.815 44.1276C186.966 44.274 187.155 44.3873 187.372 44.4676C187.594 44.5479 187.839 44.5904 188.118 44.5904Z" fill="#706F6F"/>
</svg>
